<svg width="196" height="118" viewBox="0 0 196 118" fill="none" xmlns="http://www.w3.org/2000/svg">
<path d="M141.21 46.8113C143.464 47.0612 145.738 46.9171 148.007 47.2728C153.118 48.0725 156.799 50.2069 157.043 55.8486C157.222 59.9763 155.709 62.7075 153.49 65.9708C149.642 71.6331 144.557 76.4311 141.35 82.5343C139.287 81.3643 137.332 80.0236 135.087 79.1916C130.324 77.4218 125.139 77.6188 120.561 79.8355C119.834 80.1883 116.334 82.5461 116.074 82.5343C115.584 82.5138 116.235 81.3319 116.323 81.1702C117.858 78.2979 122.724 74.9611 125.678 73.6499C131.529 71.051 139.252 70.8158 144.653 74.5848C146.834 71.7595 149.419 68.7696 151.052 65.5827C153.88 60.0645 152.596 56.1397 146.515 54.5021C145.184 54.1434 137.631 52.9998 136.81 53.5025C136.687 53.579 135.409 55.9574 135.494 56.075C139.776 56.6247 148.56 55.8662 148.692 62.1753C148.73 63.954 147.438 67.6377 145.89 68.6344C144.645 69.4399 145.225 67.7318 145.169 66.8733C145.122 66.1501 144.967 65.4592 144.507 64.8918C142.578 62.5046 135.497 62.9544 132.625 62.681C132.443 62.6692 132.326 62.7133 132.191 62.8339C131.968 63.0338 130.541 66.0061 130.128 66.644C128.844 68.6314 126.81 71.2685 124.277 71.5067C118.24 72.0682 118.533 63.4777 123.105 63.8629C125.91 64.098 126.484 67.9905 124.644 69.7427C126.218 69.5928 127.61 68.014 128.516 66.791C128.938 66.2207 130.945 62.9485 130.948 62.4693C127.191 62.0666 120.042 62.5516 118.169 58.3799C117.372 56.6012 117.592 54.2787 118.19 52.4677C118.33 52.0385 119.312 49.616 119.951 50.0481C119.986 52.1649 121.364 53.8289 123.325 54.5315C126.52 55.6751 130.705 55.5282 134.073 55.7575L135.781 53.3555C131.247 53.088 122.662 53.4026 121.578 47.4639C120.748 42.9129 123.536 38.3795 127.176 35.9041C132.282 32.4321 139.085 31.9911 144.58 34.8281C145.149 35.1221 147.283 36.7626 147.453 36.7949C147.968 36.8978 148.827 35.4455 149.17 35.5072C149.384 35.7483 150.269 36.3334 150.079 36.6744C149.97 36.8743 147.766 38.5559 147.356 38.9469C144.958 41.2313 142.989 44.036 141.204 46.8113H141.21ZM130.916 35.9747C127.736 36.351 123.038 40.1347 125.529 43.5068C127.22 45.797 131.244 45.9998 133.806 46.2292C134.764 46.3144 138.686 46.7877 139.302 46.4467C139.439 46.3703 141.051 44.1712 141.192 43.9243C141.262 43.7978 141.347 43.6861 141.324 43.5303C139.598 39.1821 135.99 35.372 130.916 35.9717V35.9747Z" fill="white"/>
<path d="M8.7295 39.9053C6.68954 39.5466 4.04579 41.0813 3.27788 43.0363C2.92616 43.9359 3.05806 44.9561 2.64772 45.7822C2.14945 45.4265 2.04101 44.9032 1.88566 44.3446C0.349833 38.841 3.74684 32.6936 9.80516 32.7583C18.2845 32.8495 22.0625 44.4004 24.9319 50.7771C27.816 52.2001 31.8959 52.8145 34.5016 50.539L34.525 41.6692C32.787 41.7427 31.1603 41.2782 29.5482 40.7079C29.1643 40.5727 27.901 39.9053 27.7046 39.9082C27.3588 39.917 26.0574 41.437 25.8083 41.3753L25.2104 40.3433C27.731 38.1913 30.0289 35.6894 31.7406 32.8495C32.0718 32.8054 32.2154 33.164 32.4821 33.3492C34.7097 34.8927 36.7526 35.7864 39.4725 34.9456C39.8184 34.8398 40.683 34.3135 40.8706 34.3459C40.9644 34.3606 42.4094 35.3219 42.4152 35.4131C41.0054 37.9767 39.0798 40.9666 35.9847 41.5164V82.5284C32.1509 81.6317 29.9263 77.8363 28.1414 74.5935C26.4502 71.5242 25.1987 68.2168 23.4371 65.2004C21.7636 64.5037 20.0958 63.7452 18.2845 63.46C15.4707 63.019 12.5837 63.9069 10.1921 65.4033V73.1206C12.8827 72.9795 15.4385 73.3676 17.9122 74.4171C18.3109 74.5876 19.9639 75.5931 20.087 75.5931C20.515 75.5931 20.9927 73.7792 21.8515 75.1786L16.1302 82.2344C14.5563 81.326 12.9091 80.1676 11.1036 79.7737C7.0178 78.8858 4.6232 80.0206 1.26723 82.0286C1.12361 82.1139 1.02689 82.352 0.88327 82.0874C0.276558 80.9732 2.04687 77.995 2.78841 77.0866C4.38286 75.1345 6.41109 74.0761 8.72657 73.1941V60.9199C6.78626 60.8758 5.12439 60.7788 5.79559 63.2719C5.55232 63.5188 4.64958 62.528 4.47958 62.3134C1.65998 58.7561 4.23338 53.8758 8.72657 54.3051V39.9053H8.7295ZM22.7982 63.5717C21.617 60.2261 20.301 56.8775 18.8677 53.623C17.839 51.2887 16.7545 48.9103 15.5469 46.6642C14.3394 44.4181 12.868 41.5899 10.3445 40.4933L10.1979 63.8657C11.9946 63.1366 13.8616 62.2399 15.8342 62.0959C18.2464 61.9195 20.5677 62.7985 22.7982 63.5717ZM34.5221 71.6565V52.253C31.8871 54.1639 28.4872 53.6436 25.5826 52.7675C27.564 57.4243 29.3137 62.2194 31.5706 66.7527C32.4177 68.4549 33.2823 70.2101 34.5221 71.6565Z" fill="white"/>
<path d="M74.4917 53.7231C74.4917 49.9394 74.4389 46.1322 74.1634 42.3661C73.3164 38.9499 68.8847 38.9264 67.1936 41.7722C66.9415 42.1956 66.5546 43.7596 65.9831 43.3686C65.4115 42.9776 65.6372 40.9079 65.7222 40.2964C66.9327 31.7353 77.8946 29.3951 80.3742 38.4854C80.5676 39.191 80.6086 39.9348 80.7933 40.6404C80.9692 40.7668 84.0819 39.3203 84.4541 38.9499V32.8496H85.773V38.2884C88.8447 36.9978 91.3888 34.8281 94.0355 32.8613C94.2787 32.9025 94.9704 34.8752 95.2372 35.3367C96.0432 36.7185 97.5702 38.1444 99.194 38.4237C99.6981 38.5089 100.249 38.3061 100.721 38.5824V32.9965H102.04V38.2884C103.74 37.4535 105.431 36.4745 106.982 35.3808C107.963 34.6899 108.802 33.8844 109.74 33.1406C109.948 33.1112 110.349 33.1847 110.502 33.3288C110.701 33.5199 111.445 35.1427 111.797 35.6278C112.633 36.7802 113.614 37.6446 115.147 37.3976C116.103 37.2447 117.577 35.5572 116.8 38.1738C116.627 38.7529 116.05 39.5849 115.619 40.0024C115.188 40.4199 113.696 41.1784 113.617 41.5958V73.206C113.532 74.3143 114.353 75.4638 114.582 76.3576C114.86 77.4571 112.477 76.6898 111.785 76.6574C106.706 76.4164 101.785 77.904 98.004 81.3525C97.5614 81.7553 96.9019 83.1812 96.1721 82.4697C95.7354 82.0405 95.0672 80.5734 94.4956 79.8884C89.3986 73.8087 84.5303 77.6188 80.2775 82.0934C80.1016 82.2786 79.958 82.7372 79.7059 82.6755C77.2908 80.6322 74.0227 78.3744 70.7107 79.2593C70.2564 79.3798 68.9492 80.0854 68.7235 80.0501C68.6708 80.0413 68.1344 79.2093 68.1198 79.1564C67.9908 78.7272 70.3121 76.1871 70.7987 75.7813C71.9359 74.8347 73.1728 74.282 74.4917 73.6411V60.1909H71.9271C71.5754 60.1909 70.5466 60.6054 70.2506 60.8612C69.6409 61.3845 69.3185 63.463 68.703 61.6609C67.9175 59.3589 68.1491 55.6575 70.4997 54.3493C70.7869 54.1905 71.9564 53.7231 72.2202 53.7231H74.4917ZM90.6121 50.1951V41.8898C90.0347 41.6605 87.8364 39.241 87.5873 39.1939C87.2795 39.1351 86.3563 39.9201 85.9225 39.9054V50.0481C87.517 50.5273 88.9883 50.6214 90.6121 50.1951ZM102.222 39.7878L102.21 50.1011C102.298 50.3627 104.097 50.6361 104.461 50.6449C105.027 50.6567 106.92 50.5244 106.888 49.8335L106.856 41.6164C106.794 41.44 105.027 40.4846 104.69 40.2611C104.303 40.0024 103.529 39.0734 103.075 39.238C103.028 39.2557 102.242 39.7407 102.219 39.7848L102.222 39.7878ZM84.457 40.7874C83.2846 41.0755 82.1767 41.8075 81.0307 42.2426L80.9281 42.4719V73.7646C82.1621 74.2879 83.3374 74.8964 84.457 75.6255V40.7874ZM100.87 40.7874C99.6483 41.0637 98.555 41.9192 97.3533 42.3308L97.2068 42.6248L97.2009 73.6264C97.2332 73.744 98.0919 73.8851 98.3352 73.9821C99.2028 74.3349 100.029 74.7847 100.873 75.1845V40.7874H100.87ZM90.7586 51.3711C89.1407 51.9415 87.5521 51.8885 85.9225 51.3711V61.9549C87.3616 61.3287 89.3195 61.3287 90.7586 61.9549V51.3711ZM107.026 51.6651C105.384 52.3119 103.84 52.1414 102.189 51.6651V61.9549C103.752 61.6285 105.481 61.408 107.026 61.9549V51.6651ZM85.9225 63.4248V75.7725L90.7381 73.4735L90.7322 63.5953C89.1905 62.9133 87.5199 62.9103 85.9225 63.4248ZM102.189 63.5718V76.3605C103.76 75.8137 105.352 75.1257 107.026 75.0375L106.955 63.5689C105.431 62.7104 103.766 62.9721 102.189 63.5689V63.5718Z" fill="white"/>
<path d="M58.1204 39.0191C58.5278 40.3098 58.9704 41.7268 59.5625 42.9381C60.2307 44.314 61.5731 46.5806 62.4583 47.8242C63.0269 48.6239 64.2051 49.5 64.5774 50.1086C64.6917 50.2967 64.765 50.4525 64.7269 50.6818L51.558 59.922C51.5844 60.5512 51.3616 64.0232 51.6664 64.2349C51.7631 64.3025 52.7392 64.4701 53.0674 64.5936C54.3893 65.0904 55.4269 65.8284 56.4556 66.7927C56.7487 66.8426 58.0296 65.3962 58.4927 65.3256C58.7184 65.2904 59.2577 66.1224 59.1287 66.3428L51.8599 72.5138L51.3001 72.3962C49.7466 70.2912 47.6363 68.6801 44.8754 69.0241C43.9961 69.1328 43.2985 69.7208 42.4426 69.7443C42.1994 67.5776 43.6121 65.6373 45.4879 64.7171L45.5172 47.9183C45.4264 47.3715 45.2945 46.8247 45.06 46.319C44.7698 45.6898 42.8471 43.9729 44.1309 43.7318C47.5689 43.6672 51.8188 43.5319 54.8202 41.6651C55.7141 41.1094 56.3941 40.2657 57.1737 39.6159C57.3115 39.5013 58.0149 38.9251 58.1204 39.025V39.0191ZM51.3792 58.4227L58.5659 53.0632L53.1436 43.9376L51.3792 44.314V58.4256V58.4227Z" fill="white"/>
<path d="M41.9527 75.978C41.4004 75.978 40.9527 76.4257 40.9527 76.978C40.9527 77.5302 41.4004 77.978 41.9527 77.978V75.978ZM41.9527 77.978C48.9986 77.978 56.0586 77.9623 63.1174 77.7634L63.061 75.7642C56.0335 75.9622 48.999 75.978 41.9527 75.978V77.978Z" fill="#F2693E"/>
<path d="M40.3022 80.0471C39.7499 80.0487 39.3034 80.4977 39.305 81.0499C39.3066 81.6022 39.7555 82.0487 40.3078 82.0471L40.3022 80.0471ZM40.3078 82.0471C48.463 82.0241 56.594 81.9502 64.7248 82.0471L64.7487 80.0472C56.5982 79.9502 48.4406 80.0242 40.3022 80.0471L40.3078 82.0471Z" fill="#F2693E"/>
<path d="M41.9768 83.6883C41.4247 83.675 40.9663 84.1118 40.953 84.6639C40.9397 85.216 41.3764 85.6744 41.9285 85.6878L41.9768 83.6883ZM41.9285 85.6878C48.9539 85.8575 56.0277 86.1164 63.0892 86.1164V84.1164C56.0599 84.1164 49.0354 83.8588 41.9768 83.6883L41.9285 85.6878Z" fill="#F2693E"/>
<path d="M6.70489 117.817H2.12775L2.48357 94.9315H7.06072L6.70489 117.817Z" fill="white"/>
<path d="M33.8929 117.817H29.801L21.6009 105.331C21.051 104.474 20.3232 103.342 20.0321 102.743C20.0321 103.601 20.0321 106.463 20.0321 107.741L19.8704 117.817H15.3579L15.7137 94.9315H20.0968L28.0057 107.029C28.5556 107.887 29.2834 109.019 29.5745 109.617C29.5745 108.76 29.5745 105.897 29.5745 104.619L29.7201 94.9476H34.2326L33.8767 117.833L33.8929 117.817Z" fill="white"/>
<path d="M47.139 117.817H42.5618L42.9177 94.9315H47.4948L47.139 117.817Z" fill="white"/>
<path d="M72.3214 99.4439H65.7549L65.4637 117.817H60.8866L61.1777 99.4439H54.6112L54.6759 94.9315H72.386L72.3214 99.4439Z" fill="white"/>
<path d="M83.8047 117.817H79.2276L79.5834 94.9315H84.1606L83.8047 117.817Z" fill="white"/>
<path d="M112.723 117.817H107.693L105.979 112.722H97.6167L95.7406 117.817H90.84L99.9619 94.9315H104.41L112.739 117.817H112.723ZM104.474 108.372L103.067 104.215C102.631 102.873 102.194 101.498 101.984 100.657C101.741 101.514 101.256 102.889 100.787 104.215L99.2503 108.372H104.474Z" fill="white"/>
<path d="M132.859 99.4439H126.293L126.002 117.817H121.424L121.715 99.4439H115.149L115.214 94.9315H132.924L132.859 99.4439Z" fill="white"/>
<path d="M144.343 117.817H139.765L140.121 94.9315H144.698L144.343 117.817Z" fill="white"/>
<path d="M172.436 94.9315L163.945 117.817H159.497L151.718 94.9315H156.78L160.888 108.178C161.293 109.455 161.729 111.121 161.907 111.93C162.118 111.073 162.57 109.504 163.007 108.178L167.423 94.9315H172.42H172.436Z" fill="white"/>
<path d="M195.16 117.817H178.793L179.148 94.9315H195.031L194.966 99.4116H183.661L183.596 103.374H190.163L190.098 107.822H183.531L183.451 113.353H195.241L195.177 117.833L195.16 117.817Z" fill="white"/>
<path d="M19.3446 4.88447H12.9571L12.6814 22.7143H8.23928L8.515 4.88447H2.1275L2.18877 0.503601H19.3906L19.3293 4.88447H19.3446Z" fill="white"/>
<path d="M43.7302 22.7294H38.6141L34.7694 14.7335H30.2966L30.1741 22.7294H25.7319L26.0842 0.518677H36.4237C40.6208 0.518677 44.0366 2.83165 43.96 7.56483C43.9141 10.9041 42.4436 12.9873 39.6098 14.1055L43.7302 22.7447V22.7294ZM39.3953 7.65673C39.426 5.65011 38.2312 4.83827 36.2705 4.83827H30.4651L30.3732 10.5518H36.1786C38.2465 10.5518 39.3647 9.60208 39.3953 7.65673Z" fill="white"/>
<path d="M69.9696 22.7294H65.0833L63.4136 17.7817H55.2952L53.4724 22.7294H48.7086L57.5623 0.518677H61.8818L69.9696 22.7294ZM61.9584 13.554L60.5952 9.52549C60.1663 8.22349 59.7527 6.89085 59.5382 6.06369C59.3085 6.89085 58.8336 8.22349 58.3741 9.52549L56.8883 13.554H61.9738H61.9584Z" fill="white"/>
<path d="M94.4624 22.7294H90.4951L82.5299 10.613C82.0091 9.78589 81.2892 8.68302 81.0135 8.10094C81.0135 8.9281 81.0135 11.7159 81.0135 12.9567L80.8603 22.7294H76.4794L76.8317 0.518677H81.0901L88.7795 12.2674C89.3004 13.0945 90.0203 14.1974 90.296 14.7795C90.296 13.9523 90.296 11.1645 90.296 9.92375L90.4492 0.533995H94.83L94.4777 22.7447L94.4624 22.7294Z" fill="white"/>
<path d="M118.94 15.9898C118.879 20.2175 116.168 23.0666 110.102 23.0666C106.395 23.0666 103.178 21.5042 101.539 19.038L104.787 16.1889C106.319 17.9964 108.295 18.7317 110.424 18.7317C113.058 18.7317 114.314 17.9964 114.33 16.3268C114.345 14.9023 113.595 14.2589 109.428 13.3092C105.354 12.3595 102.52 11.0575 102.581 6.67665C102.642 2.64809 106.242 0.166626 110.623 0.166626C114.085 0.166626 116.597 1.46863 118.665 3.65906L115.417 6.76856C114.008 5.31338 112.43 4.48622 110.408 4.48622C108.034 4.48622 107.222 5.49719 107.207 6.49284C107.192 7.88675 108.126 8.33097 111.634 9.15812C115.142 9.98528 119.032 11.1954 118.956 16.0051L118.94 15.9898Z" fill="white"/>
</svg>
