<?xml version="1.0" encoding="UTF-8"?>
<svg id="Layer_1" xmlns="http://www.w3.org/2000/svg" xmlns:xlink="http://www.w3.org/1999/xlink" version="1.1" viewBox="0 0 353.7 77">
  <!-- Generator: Adobe Illustrator 29.3.1, SVG Export Plug-In . SVG Version: 2.1.0 Build 151)  -->
  <path d="M35.4,20c0-10.6-6.1-16.5-17.6-16.5H0v57.5h11.5v-24.1h6.3c10.6,0,17.6-6.5,17.6-16.9ZM16.8,13.4c4.2,0,6.6,2.6,6.6,6.6s-2.3,6.8-6.6,6.8h-5.4v-13.5h5.4Z"/>
  <path d="M46.6,38.8c0-7.5,4.7-13,12-13s12.1,5.6,12.1,13-4.7,12.9-12,12.9-12.1-5.4-12.1-12.9ZM35.5,38.9c0,13.1,9.3,22.9,23.2,22.9s23.2-10,23.2-23-9.2-22.9-23.2-22.9-23.2,9.9-23.2,23.1h0Z"/>
  <path d="M96.1.2h-11.1v60.8h11.1V.2Z"/>
  <path d="M121,75.5l22.4-59h-11.5l-10,27.6-10.4-27.6h-12.3l16.9,42.7-6,16.3h10.9Z"/>
  <path d="M178.3,20.7c-2.8-3-7.6-4.9-13.3-4.9-13.3,0-22.6,10.2-22.6,23.1s9.3,22.9,23,22.9,10.4-2.7,12.3-5v.6c0,6.5-5.6,9.3-12.6,9.3s-10.4-1.7-13-3.2l-3.6,8.8c3.7,2.1,9.5,4,16.5,4,13.8,0,23.7-6,23.7-22.7V16.5h-10.5v4.2h.1ZM153.6,38.8c0-7.5,4.8-13.1,12.3-13.1s12.2,5.7,12.2,13.1-4.7,13-12.2,13-12.3-5.6-12.3-13Z"/>
  <path d="M214.9,16.3c-4.6,0-7.1,1.5-8.6,3.7v-3.6h-11.1v44.5h11.1v-27.1c0-3.8,1.5-5.9,5.8-5.9h2.8v-11.6Z"/>
  <path d="M252.2,61h10.4V16.5h-10.5v4.2c-2.6-2.9-7.6-4.9-13.1-4.9-13.6,0-22.7,9.8-22.7,22.9s9.2,23,22.7,23,11.5-3,13.3-5.2v4.4h-.1ZM227.3,38.7c0-7.4,4.7-13,12.3-13s12.2,5.6,12.2,13-4.7,13.1-12.2,13.1-12.3-5.6-12.3-13.1Z"/>
  <path d="M279.9,38.8c0-7.6,4.6-13.1,12.2-13.1s12.3,5.6,12.3,13.1-4.6,13-12.2,13-12.3-5.5-12.3-13ZM280.2,57.4c2.2,1.9,6.6,4.3,12.5,4.3,14.1,0,22.7-10.2,22.7-23.1s-8.8-22.9-22.2-22.9-11.4,2.7-13.6,5v-4.2h-10.5v59h11.1v-18.1Z"/>
  <path d="M341.9,61h11.1v-29.3c0-8.6-3.5-15.6-13.9-15.6s-8.2,2.5-9.4,3.8V.2h-11.1v60.8h11.1v-28c0-4.2,2.2-7.1,6.1-7.1s6,2.7,6,7.1v28h0Z"/>
</svg>