<svg width="25" height="25" viewBox="0 0 25 25" fill="none" xmlns="http://www.w3.org/2000/svg">
<path fill-rule="evenodd" clip-rule="evenodd" d="M14.0359 1.54981C14.0359 1.94845 14.3591 2.27161 14.7577 2.27161C15.1563 2.27161 15.4795 1.94845 15.4795 1.54981C15.4795 1.15117 15.1563 0.828003 14.7577 0.828003C14.3591 0.828003 14.0359 1.15117 14.0359 1.54981ZM13.4947 6.06109C13.4947 6.75873 14.0603 7.32425 14.7579 7.32425C15.4555 7.32425 16.021 6.75873 16.021 6.06109C16.021 5.36346 15.4555 4.79794 14.7579 4.79794C14.0603 4.79794 13.4947 5.36346 13.4947 6.06109ZM12.9536 10.5723C12.9536 11.5689 13.7615 12.3769 14.7581 12.3769C15.7547 12.3769 16.5626 11.5689 16.5626 10.5723C16.5626 9.57574 15.7547 8.76784 14.7581 8.76784C13.7615 8.76784 12.9536 9.57574 12.9536 10.5723ZM12.9536 15.0837C12.9536 16.0803 13.7615 16.8882 14.7581 16.8882C15.7547 16.8882 16.5626 16.0803 16.5626 15.0837C16.5626 14.0871 15.7547 13.2792 14.7581 13.2792C13.7615 13.2792 12.9536 14.0871 12.9536 15.0837ZM10.2463 12.3769C9.24974 12.3769 8.44184 11.5689 8.44184 10.5723C8.44184 9.57574 9.24974 8.76784 10.2463 8.76784C11.2429 8.76784 12.0509 9.57574 12.0509 10.5723C12.0509 11.5689 11.2429 12.3769 10.2463 12.3769ZM8.44184 15.0837C8.44184 16.0803 9.24974 16.8882 10.2463 16.8882C11.2429 16.8882 12.0509 16.0803 12.0509 15.0837C12.0509 14.0871 11.2429 13.2792 10.2463 13.2792C9.24974 13.2792 8.44184 14.0871 8.44184 15.0837ZM23.7806 11.2942C23.3819 11.2942 23.0587 10.971 23.0587 10.5724C23.0587 10.1737 23.3819 9.85057 23.7806 9.85057C24.1792 9.85057 24.5024 10.1737 24.5024 10.5724C24.5024 10.971 24.1792 11.2942 23.7806 11.2942ZM23.0587 15.0837C23.0587 15.4823 23.3819 15.8055 23.7806 15.8055C24.1792 15.8055 24.5024 15.4823 24.5024 15.0837C24.5024 14.6851 24.1792 14.3619 23.7806 14.3619C23.3819 14.3619 23.0587 14.6851 23.0587 15.0837ZM19.269 11.8355C18.5714 11.8355 18.0058 11.27 18.0058 10.5724C18.0058 9.87474 18.5714 9.30922 19.269 9.30922C19.9666 9.30922 20.5322 9.87474 20.5322 10.5724C20.5322 11.27 19.9666 11.8355 19.269 11.8355ZM18.0058 15.0837C18.0058 15.7813 18.5714 16.3468 19.269 16.3468C19.9666 16.3468 20.5322 15.7813 20.5322 15.0837C20.5322 14.3861 19.9666 13.8205 19.269 13.8205C18.5714 13.8205 18.0058 14.3861 18.0058 15.0837ZM5.73567 11.8355C5.03804 11.8355 4.47251 11.27 4.47251 10.5724C4.47251 9.87474 5.03804 9.30922 5.73567 9.30922C6.4333 9.30922 6.99883 9.87474 6.99883 10.5724C6.99883 11.27 6.4333 11.8355 5.73567 11.8355ZM10.2468 7.32425C9.54914 7.32425 8.98361 6.75873 8.98361 6.06109C8.98361 5.36346 9.54914 4.79794 10.2468 4.79794C10.9444 4.79794 11.5099 5.36346 11.5099 6.06109C11.5099 6.75873 10.9444 7.32425 10.2468 7.32425ZM10.2472 2.27161C9.84857 2.27161 9.52542 1.94845 9.52542 1.54981C9.52542 1.15117 9.84857 0.828003 10.2472 0.828003C10.6459 0.828003 10.969 1.15117 10.969 1.54981C10.969 1.94845 10.6459 2.27161 10.2472 2.27161ZM18.2764 6.06115C18.2764 6.60929 18.7208 7.05362 19.2689 7.05362C19.8171 7.05362 20.2614 6.60929 20.2614 6.06115C20.2614 5.51302 19.8171 5.06866 19.2689 5.06866C18.7208 5.06866 18.2764 5.51302 18.2764 6.06115ZM5.73497 7.05362C5.18684 7.05362 4.74247 6.60929 4.74247 6.06115C4.74247 5.51302 5.18684 5.06866 5.73497 5.06866C6.2831 5.06866 6.72744 5.51302 6.72744 6.06115C6.72744 6.60929 6.2831 7.05362 5.73497 7.05362ZM13.4947 19.5948C13.4947 20.2925 14.0603 20.858 14.7579 20.858C15.4555 20.858 16.021 20.2925 16.021 19.5948C16.021 18.8972 15.4555 18.3317 14.7579 18.3317C14.0603 18.3317 13.4947 18.8972 13.4947 19.5948ZM10.2468 20.858C9.54914 20.858 8.98361 20.2925 8.98361 19.5948C8.98361 18.8972 9.54914 18.3317 10.2468 18.3317C10.9444 18.3317 11.5099 18.8972 11.5099 19.5948C11.5099 20.2925 10.9444 20.858 10.2468 20.858ZM14.0359 24.1062C14.0359 24.5049 14.3591 24.828 14.7577 24.828C15.1563 24.828 15.4795 24.5049 15.4795 24.1062C15.4795 23.7076 15.1563 23.3844 14.7577 23.3844C14.3591 23.3844 14.0359 23.7076 14.0359 24.1062ZM10.2472 24.828C9.84857 24.828 9.52542 24.5049 9.52542 24.1062C9.52542 23.7076 9.84857 23.3844 10.2472 23.3844C10.6459 23.3844 10.969 23.7076 10.969 24.1062C10.969 24.5049 10.6459 24.828 10.2472 24.828ZM18.2764 19.5949C18.2764 20.143 18.7208 20.5874 19.2689 20.5874C19.8171 20.5874 20.2614 20.143 20.2614 19.5949C20.2614 19.0468 19.8171 18.6024 19.2689 18.6024C18.7208 18.6024 18.2764 19.0468 18.2764 19.5949ZM5.73497 20.5874C5.18684 20.5874 4.74247 20.143 4.74247 19.5949C4.74247 19.0468 5.18684 18.6024 5.73497 18.6024C6.2831 18.6024 6.72744 19.0468 6.72744 19.5949C6.72744 20.143 6.2831 20.5874 5.73497 20.5874ZM4.47251 15.0837C4.47251 15.7813 5.03804 16.3468 5.73567 16.3468C6.4333 16.3468 6.99883 15.7813 6.99883 15.0837C6.99883 14.3861 6.4333 13.8205 5.73567 13.8205C5.03804 13.8205 4.47251 14.3861 4.47251 15.0837ZM1.22376 11.2942C0.825115 11.2942 0.501953 10.971 0.501953 10.5724C0.501953 10.1737 0.825115 9.85057 1.22376 9.85057C1.6224 9.85057 1.94556 10.1737 1.94556 10.5724C1.94556 10.971 1.6224 11.2942 1.22376 11.2942ZM0.501953 15.0837C0.501953 15.4823 0.825115 15.8055 1.22376 15.8055C1.6224 15.8055 1.94556 15.4823 1.94556 15.0837C1.94556 14.6851 1.6224 14.3619 1.22376 14.3619C0.825115 14.3619 0.501953 14.6851 0.501953 15.0837Z" fill="#A8A8A8"/>
</svg>
