<svg width="27" height="25" viewBox="0 0 27 25" fill="none" xmlns="http://www.w3.org/2000/svg">
<path d="M26.3143 24.828L17.483 0.828003H14.3203L19.9137 16.0238H15.4287L16.5281 19.0148H21.0131L23.1516 24.828H26.3143Z" fill="#A8A8A8"/>
<path d="M10.9284 6.83105V21.7467C10.9284 21.9335 10.8531 22.0268 10.6663 22.0268H10.0338H8.19645C8.00971 22.0268 7.93441 21.9335 7.93441 21.7467V18.9967H4.94043V22.1202C4.94043 23.6142 6.13922 24.813 7.6332 24.813H11.0549H11.2236C12.7175 24.813 13.9163 23.6172 13.9163 22.1202V6.83105H10.9254H10.9284Z" fill="#A8A8A8"/>
<path d="M15.4247 3.84608L14.3163 0.828003H0V3.84608H4.94277V16.0238H7.93373V3.84608H15.4247Z" fill="#A8A8A8"/>
</svg>
