<?xml version="1.0" encoding="UTF-8"?>
<svg id="Layer_1" xmlns="http://www.w3.org/2000/svg" version="1.1" viewBox="0 0 133.9 84.9">
  <!-- Generator: Adobe Illustrator 29.3.1, SVG Export Plug-In . SVG Version: 2.1.0 Build 151)  -->
  <defs>
    <style>
      .tni-st0 {
        fill: #f9a011;
      }

      .tni-st1 {
        fill: #191919;
      }
    </style>
  </defs>
  <path class="tni-st1" d="M3,84.9H0l.2-15.1h3l-.2,15.1Z"/>
  <path class="tni-st1" d="M20.9,84.8h-2.7l-5.4-8.2c-.4-.6-.8-1.3-1-1.7v9.9h-3.1l.2-15.1h2.9l5.2,8c.4.6.8,1.3,1,1.7v-9.6h3.1l-.2,15.1h0Z"/>
  <path class="tni-st1" d="M29.6,84.9h-3l.2-15.1h3l-.2,15.1Z"/>
  <path class="tni-st1" d="M46.2,72.8h-4.3l-.2,12.1h-3l.2-12.1h-4.3v-3h11.7v3h-.1Z"/>
  <path class="tni-st1" d="M53.7,84.9h-3l.2-15.1h3l-.2,15.1Z"/>
  <path class="tni-st1" d="M72.7,84.9h-3.3l-1.1-3.4h-5.5l-1.2,3.4h-3.2l6-15.1h2.9l5.5,15.1h0ZM67.3,78.6l-.9-2.7c-.3-.9-.6-1.8-.7-2.3-.2.6-.5,1.5-.8,2.3l-1,2.7h3.4Z"/>
  <path class="tni-st1" d="M86,72.8h-4.3l-.2,12.1h-3l.2-12.1h-4.3v-3h11.7v3h0Z"/>
  <path class="tni-st1" d="M93.5,84.9h-3l.2-15.1h3l-.2,15.1Z"/>
  <path class="tni-st1" d="M112,69.8l-5.6,15.1h-2.9l-5.1-15.1h3.3l2.7,8.7c.3.8.6,1.9.7,2.5,0-.6.4-1.6.7-2.5l2.9-8.7h3.3Z"/>
  <path class="tni-st1" d="M127,84.8h-10.8l.2-15.1h10.4v2.9h-7.5v2.6h4.3v2.9h-4.4v3.6h7.7v2.9h0v.2Z"/>
  <path class="tni-st1" d="M61.5,13.1h-4.2l-.2,11.7h-2.9l.2-11.7h-4.2v-2.9h11.4v2.9h0Z"/>
  <path class="tni-st1" d="M77.5,24.8h-3.4l-2.5-5.3h-2.9v5.3h-3l.2-14.6h6.8c2.8,0,5,1.5,5,4.6s-1,3.6-2.9,4.3l2.7,5.7h0ZM74.7,14.9c0-1.3-.8-1.9-2.1-1.9h-3.8v3.8h3.8c1.4,0,2.1-.6,2.1-1.9Z"/>
  <path class="tni-st1" d="M110.9,24.8h-2.6l-5.2-8c-.3-.5-.8-1.3-1-1.7v9.6h-3l.2-14.6h2.8l5.1,7.7c.3.5.8,1.3,1,1.7v-9.4h3l-.2,14.6h-.1Z"/>
  <path class="tni-st1" d="M127.1,20.4c0,2.8-1.9,4.7-5.9,4.7s-4.6-1-5.6-2.6l2.1-1.9c1,1.2,2.3,1.7,3.7,1.7s2.6-.5,2.6-1.6-.5-1.4-3.2-2-4.5-1.5-4.5-4.4,2.4-4.3,5.3-4.3,3.9.9,5.3,2.3l-2.1,2c-.9-1-2-1.5-3.3-1.5s-2.1.7-2.1,1.3c0,.9.6,1.2,2.9,1.8,2.3.5,4.9,1.3,4.8,4.5h0Z"/>
  <path class="tni-st1" d="M8.2,20.8c-2.1-.4-4.8,1.2-5.6,3.2-.4.9-.2,2-.6,2.8-.5-.4-.6-.9-.8-1.5-1.6-5.6,1.9-11.9,8.1-11.9s12.6,11.9,15.5,18.4c3,1.5,7.1,2.1,9.8-.2v-9.1c-1.8,0-3.4-.4-5.1-1-.4-.1-1.7-.8-1.9-.8-.4,0-1.7,1.6-1.9,1.5l-.6-1.1c2.6-2.2,4.9-4.8,6.7-7.7.3,0,.5.3.8.5,2.3,1.6,4.4,2.5,7.2,1.6.4-.1,1.2-.6,1.4-.6,0,0,1.6,1,1.6,1.1-1.4,2.6-3.4,5.7-6.6,6.2v42c-3.9-.9-6.2-4.8-8-8.1-1.7-3.1-3-6.5-4.8-9.6-1.7-.7-3.4-1.5-5.3-1.8-2.9-.5-5.8.5-8.3,2v7.9c2.8,0,5.4.3,7.9,1.3.4.2,2.1,1.2,2.2,1.2.4,0,.9-1.9,1.8-.4l-5.9,7.2c-1.6-.9-3.3-2.1-5.2-2.5-4.2-.9-6.6.3-10.1,2.3,0,0-.2.3-.4,0-.6-1.1,1.2-4.2,2-5.1,1.6-2,3.7-3.1,6.1-4v-12.6c-2,0-3.7,0-3,2.4-.2.3-1.2-.8-1.4-1-2.9-3.6-.3-8.6,4.4-8.2v-14.7h0v.3ZM22.6,45.1c-1.2-3.4-2.6-6.8-4-10.2-1.1-2.4-2.2-4.8-3.4-7.1-1.3-2.4-2.7-5.2-5.3-6.3l-.2,23.9c1.8-.7,3.8-1.7,5.8-1.8,2.5-.2,4.9.7,7.1,1.5ZM34.6,53.3v-19.9c-2.7,2-6.2,1.4-9.2.5,2,4.8,3.8,9.7,6.1,14.3.9,1.7,1.8,3.5,3,5h0Z"/>
  <path class="tni-st1" d="M105,50.2c0-.9.8-1.5,1-2.3.7-2.3.7-9.5,0-11.8-.2-.6-1.4-1.7-.7-2,4.1,0,8.5,0,12.2-2.1.5-.3,2.4-1.8,2.6-1.8.4,0,.8.8,1.1,1.1,1.6,1.4,3.2,1.9,4.5,0,.2-.4.9-2.2,1.2-.4.7,4.3-4.5,9.1-6.9,12.2h6.2c.9,0-.2,2.1-.2,2.6-.3,2.7-.2,8.6,0,11.3,0,1.1.5,2.1.9,3.1,0,0,0,.3-.2.3-.5,0-2-.4-2.7-.4-3.9-.3-7.5.2-10.5,2.7-.3.3-1.6,1.7-1.8,1.7-1.6-2-3.4-3.7-6.2-3.3-2,.3-1.7,2.5-2.3,3.2-.4.4-.8.2-.8-.4-.6-4.7,5.2-9.6,7.8-13,0-.2.3-.2.2-.5h-5.4v-.2ZM112.4,47c.5,0,1,0,1.4,0,3.8-4,8.3-7.7,10.9-12.7,0-.2-.4.2-.5.3-1.7,1.9-3.2,3.5-6.1,2.8-1.4-.4-2.9-2.5-3.1-2.5-.5,0-2.2.5-2.8.7v11.7h0l.2-.2ZM119.8,46.1h-2.6c-3.9,3.5-7.7,7.2-10.9,11.4,1.1-.4,2.3-1.2,3.4-1.4,2.2-.5,4.8,0,6.4,1.6.2.2.9,1.2.9,1.2.7.2,1.9-.5,2.7-.5v-12.3h0Z"/>
  <path class="tni-st1" d="M72.5,55.3c1.6.6,2.8,1.7,4,2.8l3.4-1.8v-17.6c0-1-1.3-2.5-2.2-2.8-.6-.2-2.1,1.2-2.8,1.4-.4,0-.3-1.2,0-1.4l7.8-5.9c.6-.2,1.8,1.5,2.1,2,2.5,4.7.8,16.5,1.2,22.2,0,.9.3,2.2.8,2.9.4.5,2.1,1.9,2.7,2,.2,0,3.3-1,3.6-1.1,0,0,.2,0,.2-.2.3-3.2,0-6.4.2-9.6,0-2.8.5-6.8.2-9.5,0-.9-2.1-1.9-2.6-2.7-.3,0-2.1,1.4-2.5,1.6-.4.2-.2-1.1,0-1.3l7.7-6.1c.2,0,.3.1.4.3,1,1.5,1.5,4.2,3.5,4.9,1.1.3,1.9,0,3-.2,0,1.8-2,3.2-3.5,4v17c0,.5.2,1,.4,1.4,0,.4,1,1.6.5,1.9-.2.2-2.3-.3-2.8-.4-4.9-.4-10.4,1.5-13.8,5.1-2.7-1.3-3.5-3.9-4.1-6.6-2.2,1.3-4.4,2.6-6.2,4.3-.3.3-2.1,2.4-2.3,2.3-2-2.8-5-6.3-8.7-3.8,0-1.6,1.4-3,2.5-4.1.3-.3,1-.6,1.1-1v-15.2c0-.9-1-4.2-2.1-4.1-.5,0-1.7,1-2,1s-.3-.6-.2-.8c0-.7,6.6-5.3,7.5-6.2.7-.3,1.8,1.3,2.1,1.8.6,1.1.8,2.1,1.1,3.3v20h0v.2Z"/>
  <path class="tni-st1" d="M55,30.2c.4,1.3.9,2.8,1.5,4,.7,1.4,2.1,3.7,3,5,.6.8,1.8,1.7,2.2,2.3,0,.2.2.4.2.6l-13.5,9.5c0,.6-.2,4.2,0,4.4,0,0,1.1.2,1.4.4,1.4.5,2.4,1.3,3.5,2.2.3,0,1.6-1.4,2.1-1.5.2,0,.8.8.7,1l-7.5,6.3h-.6c-1.6-2.3-3.8-3.9-6.6-3.6-.9,0-1.6.7-2.5.7-.2-2.2,1.2-4.2,3.1-5.1v-17.2c0-.6-.2-1.1-.4-1.6-.3-.6-2.3-2.4-1-2.6,3.5,0,7.9-.2,11-2.1.9-.6,1.6-1.4,2.4-2.1,0-.1.9-.7,1-.6h-.1ZM48.1,50l7.4-5.5-5.6-9.3-1.8.4v14.4h0Z"/>
  <path class="tni-st1" d="M87.2,16.1c.3-.8.6-1.7.8-2.3,0,.5.4,1.4.7,2.3l.6,1.8c.5.4.9.8,1.4,1.2.8.7,1.8,1.5,2.9,2.4l-4.1-11.3h-2.8l-1.6,4c.6.6,2.1,1.9,2.1,1.9Z"/>
  <path class="tni-st1" d="M83.2,18.8l-2.4,6h3.1l1.5-4-.3-.3c-.7-.6-1.3-1.2-1.9-1.7Z"/>
  <path class="tni-st0" d="M88.2,18.4c-.5-.4-1-.8-1.4-1.2-.8-.7-1.5-1.3-2.1-2-.5-.5-1-.9-1.4-1.3-1.4-1.3-2.6-2.5-3.8-3.7-2-2-3.9-3.9-6.4-6.1-6.2-5.5-15.3-4.9-21.2-1.5-5.5,3.2-8.1,8.7-6.8,14.6,1-.2,1.4-.3,2.4-.5-1.1-4.8,1-9.2,5.6-11.9,5-2.9,13.1-3.5,18.3,1.2,2.4,2.2,4.3,4,6.3,6,1.4,1.4,2.9,2.8,4.6,4.4.5.4.9.9,1.4,1.3.7.6,1.4,1.3,2.2,2,.2.2.5.4.7.6.3.2.5.4.8.7.5.4,1,.9,1.5,1.3.8.7,1.7,1.4,2.6,2,.2.2.4.3.7.5.9.6,1.8,1.2,2.8,1.8,3.8,2.1,8.5,3.7,14.9,3.7s1.7,0,2.7,0c7.7-.5,19.4-1.2,21.1-13.2-.7-.1-1.5-.2-2.5-.3-1.3,9.2-9.3,10.5-18.8,11.1-6.9.4-11.7-.9-15.6-3-.9-.5-1.7-1-2.5-1.5-1.5-1-2.9-2.1-4.3-3.3-.6-.5-1.2-1.2-1.8-1.7h0Z"/>
</svg>