<?xml version="1.0" encoding="UTF-8"?>
<svg id="Layer_1" xmlns="http://www.w3.org/2000/svg" xmlns:xlink="http://www.w3.org/1999/xlink" version="1.1" viewBox="0 0 133.9 84.9">
  <!-- Generator: Adobe Illustrator 29.3.1, SVG Export Plug-In . SVG Version: 2.1.0 Build 151)  -->
  <defs>
    <style>
      .static-st0 {
        fill: url(#linear-gradient);
      }

      .static-st1 {
        fill: #191919;
      }
    </style>
    <linearGradient id="linear-gradient" x1="47.3" y1="15.7" x2="132.6" y2="15.7" gradientUnits="userSpaceOnUse">
      <stop offset="0" stop-color="#7CDEE0"/>
      <stop offset="1" stop-color="#E5BDF5"/>
    </linearGradient>
  </defs>
  <g id="init-group">
    <path class="static-st1" d="M11.4,79h-2.7v-13.6h2.7v13.6Z"/>
    <path class="static-st1" d="M27.6,79h-2.4l-5-7.4c-.3-.5-.8-1.2-1-1.5v9h-2.7v-13.6h2.6l4.8,7.2c.3.5.8,1.2,1,1.5v-8.7h2.7v13.6h0Z"/>
    <path class="static-st1" d="M35.5,79h-2.7v-13.6h2.7v13.6Z"/>
    <path class="static-st1" d="M50.2,68.1h-3.9v10.9h-2.7v-10.9h-3.9v-2.7h10.5s0,2.7,0,2.7Z"/>
    <path class="static-st1" d="M57.2,79h-2.7v-13.6h2.7v13.6Z"/>
    <path class="static-st1" d="M74.4,79h-3l-1.1-3h-5l-1.1,3h-2.9l5.2-13.6h2.6l5.2,13.6h.1ZM69.4,73.4l-.9-2.5c-.3-.8-.5-1.6-.7-2.1,0,.5-.4,1.3-.7,2.1l-.9,2.5h3.2Z"/>
    <path class="static-st1" d="M86.2,68.1h-3.9v10.9h-2.7v-10.9h-3.9v-2.7h10.5v2.7Z"/>
    <path class="static-st1" d="M93.2,79h-2.7v-13.6h2.7v13.6Z"/>
    <path class="static-st1" d="M109.7,65.4l-4.8,13.6h-2.6l-4.8-13.6h3l2.6,7.9c.3.8.5,1.7.6,2.2,0-.5.4-1.4.6-2.2l2.5-7.9h3,0Z"/>
    <path class="static-st1" d="M123.4,79h-9.7v-13.6h9.4v2.7h-6.7v2.3h3.9v2.6h-3.9v3.3h7s0,2.7,0,2.7Z"/>
  </g>
  <g id="news-group">
    <path class="static-st1" d="M15.8,20.9c-2.9.2-5.5,2.6-5.3,5.6-.5.6-1-2-1-2.2-.7-5.6,2.9-10.1,8.8-9.5s10.4,11.2,12.7,16.5c2.7,1.4,6.6,2,9.1-.2v-8.3c-.9,0-1.7,0-2.6-.3s-3.3-1.3-3.8-1.3c-1,0-1.6,2.3-2.4.3.3,0,.4-.2.5-.3,2.1-2,4-4.1,5.7-6.5,1.5,1.3,3.7,2.4,5.7,2.2s2.4-.8,2.6-.8,1.3.8,1.3.9c-1.4,2.6-3.1,4.7-5.9,5.7v37.7c-3.5-1-5.6-4.5-7.2-7.5s-2.7-5.8-4.2-8.6c-4-2.2-8.6-2.5-12.5,0v7.2h2.5c1.3,0,4.1,1,5.4,1.6s1.2,1.2,2.3-.2l.6.6c-1.7,2.1-3.9,4-5.1,6.5-4.3-3.4-9.9-3.6-14.3-.2-.2-2.5,1.9-5.3,3.9-6.6,1.1-.7,2.3-1.1,3.4-1.7v-11.2c-.7,0-2.8-.4-3,.6s.7,2.3-.8.8c-2.9-3-.6-8,3.6-7.5v-13.3h0ZM29.1,43.2c-2.3-5.6-4.2-11.5-7.3-16.7s-2.8-4.2-4.4-5.2l-.2,22c3.9-2,7.9-2,11.9-.2h0ZM40,32.6c-.6.2-1.2.7-1.8.9-1,.3-2.1.4-3.1.3s-2.3-.6-3.4-.6c1.5,3.8,3,7.6,4.7,11.3s2.1,4.5,3.6,6.2v-18.1Z"/>
    <path class="static-st1" d="M80,35.8c-1.6-1.9-2.3-.2-4,.3v-1l7.3-5.3c.3.1.5.3.7.5,3.7,3.8,1.4,16.9,2.1,22.3.2,1.4,1.8,3.5,3.3,3.4s3.4-1,3.4-1.2l.2-17.2c0-.9-1.8-1.7-2.4-2.5l-2.2,1.4v-1.2l7-5.4c1.3,2.6,2.4,6,6,4.4,0,1.8-2,2.6-3,3.7v15.5c0,.8.6,1.6.8,2.2s0,.3,0,.4-3.1-.5-3.8-.5c-1.3,0-3.2.4-4.5.8-2.6.7-4.9,2-6.7,3.9-2.3-1.1-3.2-3.5-3.6-5.9-3,1.4-5.5,3.5-7.8,5.9l-2.4-2.8c-1.7-1.5-3.5-1.6-5.5-.7-.3-.3,1.1-2.2,1.4-2.5.5-.6,2-1.5,2-2,0-3.8.2-7.8,0-11.7s-.2-3.6-1-4.8-1.8-.6-3,0v-1l6.7-5.2c2.2,1,2.7,4.1,2.9,6.3.3,5.3-.3,11,0,16.4l3.5,2.7,2.9-1.6.2-.4v-15c0-.7,0-1.6-.5-2.2h0Z"/>
    <path class="static-st1" d="M103.7,47.8c0-.8.7-1.4,1-2.3.6-2.1.5-7.7,0-9.8s-.7-1.5-1-2.4c1.6-.3,3.2,0,4.8-.2,3.1-.3,6.3-1.3,8.7-3.3,1.4,1,1.9,2.4,4,1.9s1.7-2.3,2-2.1c.9,4.7-3.7,8.2-6.1,11.7h5.9c0,1-.4,1.7-.5,2.7-.2,2.5-.2,6.7,0,9.3,0,1.1.3,2.2.8,3.2l-.2.4c-4.8-1.2-10.1-.5-13.4,3.5-1.2-1.7-3.5-3.5-5.7-2.9-1.8.5-1.3,2-2,2.8s-.7-.4-.7-.8c0-4,5.1-8.5,7.3-11.6h-4.9ZM110.2,44.8l1.7-.2c3.5-3.7,7.7-7.1,9.9-11.8,0-.2-.4.2-.4.3-1.5,1.9-2.7,3.3-5.4,2.9s-2.3-1.5-3.2-2.4l-2.5.8v10.4h0ZM117,55.3v-11.1c-1.2-.4-2.2-.3-3.1.4-1.9,1.5-4.7,4.5-6.4,6.4s-2.7,3-2.9,3.4c-.3.6.8,0,.9-.2,3.5-1.5,6.7-1.9,9,1.7,0,0,2.5-.6,2.5-.6Z"/>
    <path class="static-st1" d="M58.6,29.7c.5,1.2.6,2.6,1.2,3.7.8,1.6,2.6,4.5,3.8,5.8,1.2,1.3,1.7.7.3,1.8l-11.4,7.9v3.9c1.7.5,3.2,1.2,4.6,2.5l1.9-1.4.4.9c-1.2.8-5.6,5.6-6.7,5.7s-1.5-1.6-2-2c-1.3-1-2.8-1.5-4.4-1.3-.8,0-1.4.6-2.2.7,0-2,1.2-3.7,2.9-4.6v-15.4c0-1.7-1.4-2.5-1.7-3.9,4.2,0,8.4-.3,11.7-3,.3-.2,1.3-1.5,1.6-1.3h0ZM52.1,47.8l6.8-5-4.9-8.4-.4-.2-1.5.3v13.2h0Z"/>
  </g>
  <g id="trans-group">
    <polygon class="static-st1" points="54 13.4 57.8 13.4 57.8 24 60.4 24 60.4 13.4 64.2 13.4 64.2 10.8 54 10.8 54 13.4"/>
    <path class="static-st1" d="M100.8,18.2v-2.9c.2.3.6,1,.9,1.5l4.8,7.2h2.4v-13.2h-2.6v8.5c-.2-.3-.6-1-.9-1.5l-4.7-7h-2.5v13.2h2.6s0-5.8,0-5.8Z"/>
    <path class="static-st1" d="M118.3,21.6c-1.3,0-2.4-.4-3.4-1.5l-1.9,1.7c1,1.5,2.9,2.4,5.1,2.4,3.6,0,5.2-1.7,5.2-4.2s-2.3-3.6-4.4-4.1-2.7-.8-2.7-1.6.5-1.2,1.9-1.2,2.1.5,3,1.4l1.9-1.8c-1.2-1.3-2.7-2.1-4.8-2.1s-4.7,1.5-4.7,3.9,1.7,3.4,4.1,3.9c2.5.6,2.9.9,2.9,1.8s-.7,1.4-2.3,1.4c0,0,0,0,.1,0Z"/>
    <path class="static-st1" d="M78.9,15c0-.8-.3-1.6-.6-2.1-.4-.6-.9-1.1-1.5-1.5-.7-.4-1.6-.6-2.5-.6h-6.1v13.2h2.6v-4.7h2.7l2.4,4.7h3l-2.5-5.1c1.7-.7,2.5-1.9,2.5-3.9h0ZM74.2,16.7h-3.4v-3.4h3.4c1.2,0,1.9.5,1.9,1.7s-.7,1.7-1.9,1.7Z"/>
  </g>
  <path class="static-st0" d="M122.9,24.3c-6.2,3.6-16.3,4.4-22.4,1.7-7.9-3.5-13.1-8.7-18.1-13.8-2.6-2.6-5-5-7.6-7.1-5-4-12.8-4.4-18.5-1-4.8,2.9-7.1,7.7-6.2,13.2l2-.3c-.8-4.7,1.1-8.7,5.2-11.1,5-3,11.9-2.6,16.2.8,2.6,2,4.9,4.4,7.4,6.9,4.9,5,10.5,10.6,18.7,14.2,2.7,1.2,6.1,1.8,9.6,1.8h0c5.2,0,10.6-1.3,14.6-3.6,3.8-2.2,6-5.2,6.3-8.7l-2-.2c-.3,3.6-3.1,5.9-5.3,7.2Z"/>
  <path class="static-st1" d="M89.4,10.9h0c0,0-2.6,0-2.6,0l-2.8,7.3s0,0,0,0l-2.2,5.9h2.8s2.1-5.8,3.5-9.6c.2.4.4,1.1.6,1.8l.4,1.2c1.2,1.1,2.6,2.2,4,3.2l-3.7-9.7Z"/>
</svg>