<?xml version="1.0" encoding="UTF-8"?>
<svg xmlns="http://www.w3.org/2000/svg" version="1.1" viewBox="0 0 972.3 279.9">
  <!-- Generator: Adobe Illustrator 29.3.1, SVG Export Plug-In . SVG Version: 2.1.0 Build 151)  -->
  <defs>
    <style>
      .st0 {
        fill: #fff;
      }
    </style>
  </defs>
  <g id="original_U-do_not_edit">
    <path class="st0" d="M166.3,31.4l.2,94.7c0,6.1,0,24.5-46.5,24.6h-4.4s-4.4,0-4.4,0c-46.5,0-46.5-18.5-46.5-24.6l.2-94.7H.8v108.9c0,30.1,84.5,32.5,110.4,32.5h8.7c25.9,0,110.4-2.3,110.4-32.5V31.4c0,0-64,0-64,0ZM5.6,140.3c0-3.6,0-104.3,0-104.3h54.4v90.1c0,23.9,25.6,29.3,51.3,29.4,0,3.9,0,10.1,0,12.5-51.3,0-105.6-7.9-105.6-27.7ZM225.5,140.3c0,19.8-54.3,27.7-105.6,27.7,0-2.5,0-8.6,0-12.5,25.7,0,51.3-5.5,51.3-29.4V36h54.4s0,100.7,0,104.3Z"/>
    <path d="M171.2,126.1c0,23.9-25.6,29.3-51.3,29.4,0,3.9,0,10.1,0,12.5,51.3,0,105.6-7.9,105.6-27.7s0-104.3,0-104.3h-54.4v90.1Z"/>
    <path d="M60,126.1V36H5.6s0,100.7,0,104.3c0,19.8,54.3,27.7,105.6,27.7,0-2.5,0-8.6,0-12.5-25.7,0-51.3-5.5-51.3-29.4Z"/>
  </g>
  <g id="text">
    <g>
      <path d="M313.7,161.4l-3,5h-2.5l-.4-20.9h3c1.1,5.9,3.1,10.4,6,13.5,3,3.1,6.8,4.6,11.4,4.6s6.8-.9,9-2.7c2.1-1.8,3.2-4.3,3.2-7.6s-.3-2.8-.8-4c-.6-1.2-1.3-2.1-2.3-2.9-1.3-.9-4.2-2-8.6-3.1-1.4-.4-2.5-.6-3.2-.8-6.9-1.9-11.4-3.9-13.7-6.1-2.3-2.2-3.4-5.3-3.4-9.4s1.4-8,4.2-10.7c2.8-2.7,6.5-4,11.2-4s5.1.4,7.3,1.3c2.3.8,4.3,2.1,6.1,3.8l2.8-4.3h2.7l.8,18.7h-2.8c-1.4-5.3-3.5-9.4-6.3-12.1-2.8-2.7-6.4-4-10.6-4s-5.6.8-7.3,2.3c-1.7,1.5-2.6,3.7-2.6,6.5,0,4.3,4.3,7.5,13,9.6.8.2,1.5.3,1.9.5,4.1,1,6.9,1.9,8.6,2.7,1.7.8,3.1,1.7,4.3,2.8,1.4,1.3,2.5,2.9,3.2,4.8.8,1.9,1.1,4,1.1,6.3,0,5.1-1.6,9-4.7,11.8-3.1,2.8-7.5,4.2-13.2,4.2s-5.4-.5-8-1.4c-2.5-.9-4.6-2.3-6.4-4Z"/>
      <path d="M391.5,147.3l3.4.4c-.8,6-3,10.7-6.6,14.1-3.6,3.4-8.2,5.1-13.7,5.1s-5.3-.4-7.6-1.2-4.5-2-6.4-3.6c-3.3-2.7-5.7-6-7.4-9.7-1.7-3.8-2.5-8-2.5-12.8s.5-7,1.6-10.2c1-3.2,2.6-6,4.6-8.6,2.2-2.8,4.8-4.9,7.6-6.3,2.8-1.4,6.1-2.1,9.7-2.1s4.8.4,6.9,1.2c2.1.8,4.2,2,6,3.6l2.7-4.5h2.7l.9,21h-2.8c-1.1-5.8-2.9-10.3-5.6-13.4-2.7-3.1-6-4.7-10-4.7s-8.8,2-11.3,6c-2.5,4-3.8,10-3.8,18s1.3,14.1,3.8,18c2.5,3.9,6.4,5.8,11.7,5.8s7.6-1.4,10.3-4.1c2.7-2.7,4.6-6.7,5.7-12Z"/>
      <path d="M399.2,165.5v-3.4h3.7c1.5,0,2.5-.3,3-.8.5-.5.8-1.4.8-2.7v-38.3c0-1.3-.3-2.2-.8-2.7-.5-.5-1.5-.7-3-.7h-3.7v-3.4h23v3.4h-3.8c-1.5,0-2.4.2-3,.7-.5.5-.8,1.4-.8,2.7v16.1h24.3v-16.1c0-1.3-.3-2.2-.8-2.7-.5-.5-1.5-.7-3-.7h-3.8v-3.4h23v3.4h-3.8c-1.5,0-2.5.2-3,.7-.5.5-.8,1.4-.8,2.7v38.3c0,1.3.3,2.2.8,2.7.5.5,1.5.8,3,.8h3.8v3.4h-23v-3.4h3.8c1.5,0,2.4-.3,3-.8.5-.5.8-1.4.8-2.7v-18.6h-24.3v18.6c0,1.3.3,2.2.8,2.7.5.5,1.5.7,3,.7h3.8v3.4h-23Z"/>
      <path d="M459.3,139.6c0-3.8.6-7.4,1.7-10.6,1.1-3.3,2.8-6.2,5.1-8.7,2.3-2.6,5-4.6,8-6,3-1.4,6.4-2,10-2s6.9.7,9.9,2c2.9,1.3,5.6,3.3,8,6,2.3,2.6,4,5.4,5.1,8.7,1.1,3.2,1.7,6.8,1.7,10.7s-.5,7.5-1.5,10.5c-1,3-2.6,5.8-4.8,8.3-2.4,2.8-5.1,4.9-8.2,6.3-3,1.4-6.4,2.1-10.2,2.1s-7.2-.7-10.2-2.1c-3-1.4-5.8-3.5-8.2-6.3-2.2-2.5-3.8-5.3-4.8-8.4-1-3.1-1.6-6.6-1.6-10.4ZM468.7,139.6c0,8.1,1.3,14.1,3.8,18.1,2.5,3.9,6.4,5.9,11.6,5.9s9-2,11.6-6c2.6-4,3.8-10,3.8-18s-1.3-14.2-3.8-18.1c-2.5-3.9-6.4-5.9-11.6-5.9s-9.1,2-11.6,5.9c-2.5,3.9-3.8,10-3.8,18.1Z"/>
      <path d="M514.7,139.6c0-3.8.6-7.4,1.7-10.6,1.1-3.3,2.8-6.2,5.1-8.7,2.3-2.6,5-4.6,8-6,3-1.4,6.4-2,10-2s6.9.7,9.9,2c2.9,1.3,5.6,3.3,8,6,2.3,2.6,4,5.4,5.1,8.7,1.1,3.2,1.7,6.8,1.7,10.7s-.5,7.5-1.5,10.5c-1,3-2.6,5.8-4.8,8.3-2.4,2.8-5.1,4.9-8.2,6.3-3,1.4-6.4,2.1-10.2,2.1s-7.2-.7-10.2-2.1-5.8-3.5-8.2-6.3c-2.2-2.5-3.8-5.3-4.8-8.4-1-3.1-1.6-6.6-1.6-10.4ZM524,139.6c0,8.1,1.3,14.1,3.8,18.1,2.5,3.9,6.4,5.9,11.6,5.9s9-2,11.6-6c2.6-4,3.8-10,3.8-18s-1.3-14.2-3.8-18.1c-2.5-3.9-6.4-5.9-11.6-5.9s-9.1,2-11.6,5.9c-2.5,3.9-3.8,10-3.8,18.1Z"/>
      <path d="M569.3,165.5v-3.4h3.7c1.5,0,2.5-.2,3.1-.7.5-.5.8-1.4.8-2.8v-38.3c0-1.3-.3-2.2-.8-2.7-.5-.5-1.5-.7-3.1-.7h-3.7v-3.4h23v3.4h-3.8c-1.5,0-2.5.2-3,.7-.5.5-.8,1.4-.8,2.7v38.3c0,1.5.3,2.4,1,2.9.7.5,2.4.7,5.1.7s6.6-.2,8.7-.6c2.1-.4,3.6-1.1,4.7-2,1.2-1.1,2.3-2.7,3.2-5.1.9-2.3,1.7-5.3,2.3-9h2.8l-1.1,19.9h-42.1Z"/>
      <path d="M635.1,148.9c0-5.3,1.5-9.6,4.5-12.9,3-3.3,6.9-4.9,11.7-4.9s8.7,1.6,11.7,4.9c3,3.3,4.5,7.6,4.5,12.9s-1.5,9.6-4.5,12.9c-3,3.3-6.9,4.9-11.7,4.9s-8.7-1.6-11.7-4.9c-3-3.3-4.5-7.6-4.5-12.9ZM642.5,148.9c0,5.1.7,8.9,2.1,11.3,1.4,2.4,3.6,3.6,6.6,3.6s5.4-1.2,6.8-3.5c1.4-2.3,2.1-6.1,2.1-11.3s-.7-9-2.1-11.4c-1.4-2.4-3.6-3.6-6.7-3.6s-5.3,1.2-6.7,3.6c-1.4,2.4-2.1,6.2-2.1,11.4Z"/>
      <path d="M671.4,165.5v-3.1h3.1c1-.2,1.7-.4,2-.7.3-.3.4-1,.4-2.1v-24.5h-5.9v-3h5.9v-1.5c0-6.1,1.1-10.7,3.4-13.7,2.2-3.1,5.6-4.6,10-4.6s5.4.7,7.2,2c1.8,1.3,2.7,3.1,2.7,5.2s-.4,2.3-1.1,3c-.7.8-1.7,1.1-2.8,1.1s-2-.4-2.7-1.1c-.7-.7-1.1-1.6-1.1-2.7s.2-1.2.6-2c.4-.7.6-1.2.6-1.4,0-.4-.2-.8-.7-1-.5-.2-1.2-.4-2-.4-2.6,0-4.5,1.2-5.6,3.6-1.2,2.4-1.7,6.4-1.7,12v1.4h7.7v3h-7.7v24.5c0,1.1.2,1.8.5,2.1.3.4.9.5,1.9.5h4.4v3.2h-18.8Z"/>
      <path d="M348.7,222.8l3.4.4c-.8,6-3,10.7-6.6,14.1-3.6,3.4-8.2,5.1-13.7,5.1s-5.3-.4-7.6-1.2-4.5-2-6.4-3.6c-3.3-2.7-5.7-6-7.4-9.7-1.7-3.8-2.5-8-2.5-12.8s.5-7,1.6-10.2c1-3.2,2.6-6,4.6-8.6,2.2-2.8,4.8-4.9,7.6-6.3,2.8-1.4,6.1-2.1,9.7-2.1s4.8.4,6.9,1.2c2.1.8,4.2,2,6,3.6l2.7-4.5h2.7l.9,21h-2.8c-1.1-5.8-2.9-10.3-5.6-13.4-2.7-3.1-6-4.7-10-4.7s-8.8,2-11.3,6c-2.5,4-3.8,10-3.8,18s1.3,14.1,3.8,18c2.5,3.9,6.4,5.8,11.7,5.8s7.6-1.4,10.3-4.1c2.7-2.7,4.6-6.7,5.7-12Z"/>
      <path d="M357.2,215.1c0-3.8.6-7.4,1.7-10.6,1.1-3.3,2.8-6.2,5.1-8.7,2.3-2.6,5-4.6,8-6,3-1.4,6.4-2,10-2s6.9.7,9.9,2c2.9,1.3,5.6,3.3,8,6,2.3,2.6,4,5.4,5.1,8.7,1.1,3.2,1.7,6.8,1.7,10.7s-.5,7.5-1.5,10.5c-1,3-2.6,5.8-4.8,8.3-2.4,2.8-5.1,4.9-8.2,6.3-3,1.4-6.4,2.1-10.2,2.1s-7.2-.7-10.2-2.1-5.8-3.5-8.2-6.3c-2.2-2.5-3.8-5.3-4.8-8.4-1-3.1-1.6-6.6-1.6-10.4ZM366.6,215.1c0,8.1,1.3,14.1,3.8,18.1,2.5,4,6.4,5.9,11.6,5.9s9-2,11.6-6c2.6-4,3.8-10,3.8-18s-1.3-14.2-3.8-18.1c-2.5-3.9-6.4-5.9-11.6-5.9s-9.1,2-11.6,5.9c-2.5,3.9-3.8,10-3.8,18.1Z"/>
      <path d="M422.4,193.7v35.1c0,3.6.6,6.1,1.8,7.3,1.2,1.2,3.4,1.9,6.8,1.9v3.1h-20.9v-3.1c3.4,0,5.7-.7,6.9-1.9,1.2-1.2,1.8-3.7,1.8-7.3v-32.8c0-1.3-.3-2.2-.8-2.7-.5-.5-1.5-.7-3-.7h-4.3v-3.4h18l14,39.8,13.5-39.8h17.6v3.4h-3.8c-1.5,0-2.5.2-3,.7-.5.5-.8,1.4-.8,2.7v38.3c0,1.4.3,2.3.8,2.8.5.5,1.5.7,3,.7h3.8v3.4h-23.3v-3.4h4.3c1.5,0,2.5-.2,3.1-.7.5-.5.8-1.4.8-2.8v-40.5l-16.1,47.4h-2.8l-17.2-47.4Z"/>
      <path d="M488.3,193.7v35.1c0,3.6.6,6.1,1.8,7.3,1.2,1.2,3.4,1.9,6.8,1.9v3.1h-20.9v-3.1c3.4,0,5.7-.7,6.9-1.9,1.2-1.2,1.8-3.7,1.8-7.3v-32.8c0-1.3-.3-2.2-.8-2.7-.5-.5-1.5-.7-3-.7h-4.3v-3.4h18l14,39.8,13.5-39.8h17.6v3.4h-3.8c-1.5,0-2.5.2-3,.7-.5.5-.8,1.4-.8,2.7v38.3c0,1.4.3,2.3.8,2.8.5.5,1.5.7,3,.7h3.8v3.4h-23.3v-3.4h4.3c1.5,0,2.5-.2,3.1-.7.5-.5.8-1.4.8-2.8v-40.5l-16.1,47.4h-2.8l-17.2-47.4Z"/>
      <path d="M542.8,189h23.3v3.4h-3.8c-1.5,0-2.5.2-3,.7-.5.5-.8,1.4-.8,2.7v29.1c0,4.6,1.2,7.9,3.5,10.1,2.3,2.2,6,3.2,10.9,3.2s5.9-.6,8.1-1.7c2.2-1.1,3.7-2.8,4.8-5,.4-.8.6-2,.8-3.4.2-1.4.2-3.6.2-6.6v-22.7c0-2.5-.4-4.2-1.2-5.1-.8-.9-2.1-1.4-4-1.4h-3.2v-3.4h19.8v3.4h-2.7c-1.9,0-3.3.5-4.1,1.4-.8.9-1.2,2.6-1.2,5.1v23c0,7.3-1.5,12.6-4.6,15.7-3.1,3.1-8.2,4.7-15.3,4.7s-11.4-1.5-14.7-4.4c-3.3-2.9-4.9-7.2-4.9-13v-29c0-1.4-.3-2.3-.8-2.7-.5-.5-1.5-.7-3-.7h-4.2v-3.4Z"/>
      <path d="M601.1,241v-3.1c3-.2,5.1-.9,6.1-2.1,1.1-1.2,1.6-3.5,1.6-7.1v-34c-.5-.9-1.2-1.5-2.1-1.8-.9-.4-2.4-.5-4.4-.5h-1.2v-3.3h14.1l28.7,39.3v-26.9c0-3.7-.6-6.2-1.8-7.4-1.2-1.2-3.4-1.8-6.8-1.8v-3.1h20.1v3.1c-3,.1-5.1.8-6.2,2.1-1.1,1.2-1.7,3.6-1.7,7.2v41h-2.9l-32-43.7v30.1c0,3.7.6,6.1,1.8,7.3,1.2,1.2,3.5,1.9,6.7,1.9v3.1h-20Z"/>
      <path d="M659.6,241v-3.4h3.9c1.5,0,2.6-.2,3.1-.7.5-.5.8-1.4.8-2.7v-38.3c0-1.3-.3-2.2-.8-2.7-.5-.5-1.6-.7-3.1-.7h-3.9v-3.4h23.4v3.4h-3.9c-1.5,0-2.5.2-3,.7-.5.5-.8,1.4-.8,2.7v38.3c0,1.4.3,2.3.8,2.8.5.5,1.5.7,3,.7h3.9v3.4h-23.4Z"/>
      <path d="M729.1,222.8l3.4.4c-.8,6-3,10.7-6.6,14.1-3.6,3.4-8.2,5.1-13.7,5.1s-5.3-.4-7.6-1.2c-2.4-.8-4.5-2-6.4-3.6-3.3-2.7-5.7-6-7.4-9.7-1.7-3.8-2.5-8-2.5-12.8s.5-7,1.6-10.2c1-3.2,2.6-6,4.6-8.6,2.2-2.8,4.8-4.9,7.6-6.3,2.8-1.4,6.1-2.1,9.7-2.1s4.8.4,6.9,1.2c2.1.8,4.2,2,6,3.6l2.7-4.5h2.7l.9,21h-2.8c-1.1-5.8-2.9-10.3-5.6-13.4-2.7-3.1-6-4.7-10-4.7s-8.8,2-11.3,6c-2.5,4-3.8,10-3.8,18s1.3,14.1,3.8,18c2.5,3.9,6.4,5.8,11.7,5.8s7.6-1.4,10.3-4.1c2.7-2.7,4.6-6.7,5.7-12Z"/>
      <path d="M757.1,188.2h2.8l18.4,45.8c.6,1.5,1.2,2.5,1.9,2.9.7.5,1.7.7,3.1.7s.4,0,.7,0c.3,0,.6,0,.7,0v3.4h-21.5v-3.4h2.7c1.8,0,3-.1,3.6-.4.6-.3.8-.8.8-1.5s0-.6-.2-1.1c-.1-.4-.3-.9-.5-1.5l-3.3-9h-19.4l-2.2,5.6c-.3.8-.6,1.6-.7,2.4-.2.8-.3,1.5-.3,2,0,1.2.4,2.1,1.3,2.7.9.6,2.2.9,3.9.9h1.8v3.4h-18.6v-3.4h.6c1.9,0,3.4-.4,4.4-1.2,1-.8,2-2.4,3-4.8l16.9-43.3ZM765,220.4l-8.5-20.9-8.2,20.9h16.8Z"/>
      <path d="M809.9,234.2c0,1.4.3,2.3.8,2.8.5.5,1.5.7,3,.7h4.6v3.4h-24.6v-3.4h4.6c1.5,0,2.5-.2,3-.7.5-.5.8-1.4.8-2.8v-38.6c0-1.5-.2-2.6-.7-3.1-.5-.5-1.8-.8-4.1-.8-3.2,0-5.7,1.3-7.4,3.8-1.7,2.5-3,7-3.8,13.4h-2.7l1-20h43.2l1.1,20h-2.7c-1-6.9-2.4-11.5-4.1-13.8-1.7-2.3-4.6-3.4-8.6-3.4s-2.2.3-2.7.8c-.5.5-.7,1.5-.7,3.1v38.6Z"/>
      <path d="M833.3,241v-3.4h3.9c1.5,0,2.6-.2,3.1-.7.5-.5.8-1.4.8-2.7v-38.3c0-1.3-.3-2.2-.8-2.7-.5-.5-1.6-.7-3.1-.7h-3.9v-3.4h23.5v3.4h-3.9c-1.5,0-2.5.2-3,.7-.5.5-.8,1.4-.8,2.7v38.3c0,1.4.3,2.3.8,2.8.5.5,1.5.7,3,.7h3.9v3.4h-23.5Z"/>
      <path d="M862,215.1c0-3.8.6-7.4,1.7-10.6,1.1-3.3,2.8-6.2,5.1-8.7,2.3-2.6,5-4.6,8-6,3-1.4,6.4-2,10-2s6.9.7,9.9,2c2.9,1.3,5.6,3.3,8,6,2.3,2.6,4,5.4,5.1,8.7,1.1,3.2,1.7,6.8,1.7,10.7s-.5,7.5-1.5,10.5c-1,3-2.6,5.8-4.8,8.3-2.4,2.8-5.1,4.9-8.2,6.3-3,1.4-6.4,2.1-10.2,2.1s-7.2-.7-10.2-2.1c-3-1.4-5.8-3.5-8.2-6.3-2.2-2.5-3.8-5.3-4.8-8.4-1-3.1-1.6-6.6-1.6-10.4ZM871.3,215.1c0,8.1,1.3,14.1,3.8,18.1,2.5,4,6.4,5.9,11.6,5.9s9-2,11.6-6c2.6-4,3.8-10,3.8-18s-1.3-14.2-3.8-18.1c-2.5-3.9-6.4-5.9-11.6-5.9s-9.1,2-11.6,5.9-3.8,10-3.8,18.1Z"/>
      <path d="M916.3,241v-3.1c3-.2,5.1-.9,6.1-2.1,1.1-1.2,1.6-3.5,1.6-7.1v-34c-.5-.9-1.2-1.5-2.1-1.8-.9-.4-2.4-.5-4.4-.5h-1.2v-3.3h14.1l28.7,39.3v-26.9c0-3.7-.6-6.2-1.8-7.4-1.2-1.2-3.4-1.8-6.8-1.8v-3.1h20.1v3.1c-3,.1-5.1.8-6.2,2.1-1.1,1.2-1.7,3.6-1.7,7.2v41h-2.9l-32-43.7v30.1c0,3.7.6,6.1,1.8,7.3,1.2,1.2,3.5,1.9,6.7,1.9v3.1h-20Z"/>
    </g>
    <rect x="268.1" y="0" width="2.5" height="279.9"/>
  </g>
  <g id="UMiami-do_not_edit">
    <g>
      <path d="M322.8,38.2v2.3h-2.5c-1.9,0-2.5.5-2.5,2.3v19.4c0,6.1,3,8.9,9.6,8.9s7.2-1.5,8.5-4.5c.6-1.3.7-3.6.7-6.7v-15.1c0-2.9-.6-4.3-3.5-4.3h-2.1v-2.3h13.2v2.3h-1.8c-2.7,0-3.5,1.2-3.5,4.3v15.3c0,9.4-3.5,13.6-13.3,13.6s-13.1-3.9-13.1-11.6v-19.3c0-1.8-.5-2.3-2.5-2.3h-2.8v-2.3h15.6Z"/>
      <path d="M347.5,70.8c4.4-.3,5.1-1.9,5.1-6.1v-22.7c-.7-1.3-2-1.6-4.3-1.6h-.8v-2.2h9.4l19.1,26.2v-18c0-4.7-.9-6.1-5.7-6.1v-2.1h13.4v2.1c-4.3.2-5.2,1.7-5.2,6.1v27.3h-1.9l-21.4-29.1v20.1c0,4.5,1,6.1,5.7,6.1v2.1h-13.3v-2.1Z"/>
      <path d="M387.9,70.6h2.6c2,0,2.6-.5,2.6-2.3v-25.5c0-1.8-.6-2.3-2.6-2.3h-2.6v-2.3h15.6v2.3h-2.6c-2,0-2.5.5-2.5,2.3v25.5c0,1.8.6,2.3,2.5,2.3h2.6v2.3h-15.6v-2.3Z"/>
      <path d="M422.5,73.7l-12.1-31.2c-.7-1.9-1.1-2.1-3.5-2.1h-1.1v-2.3h14.7v2.3h-1.8c-2,0-2.9.2-2.9,1.3s0,1,.4,1.7l8.5,21.7,7.5-19.4c.4-1.2.6-2.1.6-2.7,0-1.8-1.1-2.5-3.5-2.5h-1.3v-2.3h12.5v2.3h-.3c-2.8,0-3.7,1.2-4.8,4.1l-11.1,29.2h-1.9Z"/>
      <path d="M442.7,70.6h2.5c1.9,0,2.5-.4,2.5-2.3v-25.5c0-1.9-.6-2.3-2.5-2.3h-2.5v-2.3h28.1l.6,12.2h-2.1c-.6-4.2-1.9-7-3.4-8.3-1.7-1.4-4.5-1.8-8.9-1.8s-4.1.1-4.1,2.4v11h.7c4.9,0,6.8-1.6,7.2-6.6h2v15.3h-2c-.4-5-2.3-6.6-7.2-6.6h-.7v12.5c0,2.4,1.1,2.4,4.5,2.4s6.9-.3,8.8-1.2,3.5-4.3,4.5-9.8h1.8l-.7,13.2h-29.2v-2.3Z"/>
      <path d="M477.2,70.6h2.5c1.9,0,2.5-.4,2.5-2.3v-25.5c0-1.9-.6-2.3-2.5-2.3h-2.5v-2.3h19.2c5.8,0,9.7,3.4,9.7,8.5s-3.6,7.9-10.6,8.6c3.9.5,5.9,2.4,6.8,6.2l1.3,5.4c.5,2.1,1.1,3.2,2.2,3.2s1.9-1.6,2-5h1.8c0,.4,0,.8,0,1.1,0,4.9-2.2,7.5-5.8,7.5s-5.2-2.1-5.7-6.8l-.5-4.8c-.5-4.6-2.8-6.1-7.4-6.1h-2.6v12.2c0,1.9.6,2.3,2.5,2.3h3v2.3h-15.7v-2.3ZM487.4,53.8h2.4c.6.1,1.1.1,1.6.1,6.4,0,9.2-2,9.2-6.9s-2.3-6.7-7.6-6.7h-3.1c-2,0-2.4.5-2.4,2.1v11.3Z"/>
      <path d="M515.2,73.5h-1.7l-.2-13.9h2c1.4,7.9,5.5,12,11.6,12s8.1-2.6,8.1-6.9-.8-3.6-2.1-4.6c-1.7-1.2-4.4-1.7-7.9-2.6-7.7-2.1-11.4-4-11.4-10.3s4-9.8,10.2-9.8,6.6,1.2,9,3.4l1.9-2.9h1.8l.5,12.5h-1.9c-1.8-7.2-5.6-10.8-11.3-10.8s-6.6,2.1-6.6,5.8,3.6,5.1,10,6.7c3.5.9,6.3,1.6,8.5,3.6,1.9,1.7,2.9,4.3,2.9,7.4,0,6.7-4.2,10.6-11.9,10.6s-7.2-1.3-9.6-3.6l-2,3.3Z"/>
      <path d="M543.4,70.6h2.6c2,0,2.6-.5,2.6-2.3v-25.5c0-1.8-.6-2.3-2.6-2.3h-2.6v-2.3h15.6v2.3h-2.6c-2,0-2.5.5-2.5,2.3v25.5c0,1.8.6,2.3,2.5,2.3h2.6v2.3h-15.6v-2.3Z"/>
      <path d="M584.2,70.6h3.1v2.3h-16.4v-2.3h3.1c1.9,0,2.5-.4,2.5-2.3v-25.7c0-2.5-.8-2.5-3.2-2.5-4.6,0-6.4,3.5-7.5,11.5h-1.8l.7-13.3h28.8l.7,13.3h-1.8c-1.3-8.9-2.9-11.5-8.4-11.5s-2.2.6-2.2,2.5v25.7c0,1.9.6,2.3,2.5,2.3Z"/>
      <path d="M618.6,70.6h3v2.3h-16.3v-2.3h3c1.9,0,2.5-.5,2.5-2.3v-9.8l-9.7-15.4c-1.2-1.9-1.7-2.6-3.9-2.6h-.9v-2.3h14.8v2.3h-2c-1.6,0-2.5.3-2.5,1.1s.3,1,.7,1.7l7.6,12,6.3-10.9c.4-.7.6-1.2.6-1.9,0-1.3-1.1-2-3.3-2h-1.3v-2.3h12.7v2.3h-.9c-2.2,0-2.9.8-4,2.6l-8.9,15.2v10c0,1.8.6,2.3,2.5,2.3Z"/>
      <path d="M647.4,42.7c3.1-3.5,7.2-5.3,12-5.3s8.7,1.7,11.9,5.3c3,3.4,4.6,7.7,4.6,12.9s-1.2,9.1-4.2,12.6c-3.2,3.7-7.2,5.6-12.2,5.6s-9-1.8-12.2-5.6c-3-3.5-4.3-7.5-4.3-12.6s1.6-9.6,4.5-12.9ZM659.4,71.5c6.9,0,10.3-5.3,10.3-16s-3.2-16-10.3-16-10.3,5.2-10.3,16,3.3,16,10.3,16Z"/>
      <path d="M677.3,70.6h2.5c1.9,0,2.5-.4,2.5-2.3v-25.5c0-1.9-.6-2.3-2.5-2.3h-2.5v-2.3h28.1l.6,12.2h-2.1c-.6-4.2-1.9-7-3.4-8.3-1.7-1.4-4.5-1.8-8.9-1.8s-4.1.1-4.1,2.4v11h.7c4.9,0,6.8-1.6,7.2-6.6h2v15.3h-2c-.4-5-2.3-6.6-7.2-6.6h-.7v12.5c0,1.9.6,2.3,2.5,2.3h3.2v2.3h-15.9v-2.3Z"/>
      <path d="M731.5,64.7c0,4.6,1,6.1,5.7,6.1v2.1h-13.9v-2.1c4.8,0,5.8-1.6,5.8-6.1v-21.9c0-1.9-.6-2.3-2.5-2.3h-2.8v-2.3h12l9.3,26.5,9-26.5h11.7v2.3h-2.5c-1.9,0-2.5.4-2.5,2.3v25.5c0,1.9.6,2.3,2.5,2.3h2.5v2.3h-15.6v-2.3h2.9c1.9,0,2.5-.4,2.5-2.3v-27l-10.8,31.6h-1.9l-11.5-31.6v23.4Z"/>
      <path d="M770.4,70.6h2.6c2,0,2.6-.5,2.6-2.3v-25.5c0-1.8-.6-2.3-2.6-2.3h-2.6v-2.3h15.6v2.3h-2.6c-2,0-2.5.5-2.5,2.3v25.5c0,1.8.6,2.3,2.5,2.3h2.6v2.3h-15.6v-2.3Z"/>
      <path d="M805.2,37.6l12.2,30.6c.8,1.9,1.3,2.4,3.3,2.4s.6,0,1,0v2.3h-14.4v-2.3h1.8c2,0,2.9-.1,2.9-1.2s-.1-1-.4-1.7l-2.2-6h-12.9l-1.5,3.7c-.4,1.1-.7,2.3-.7,2.9,0,1.5,1.2,2.4,3.5,2.4h1.2v2.3h-12.4v-2.3h.4c2.8,0,3.8-1.1,4.9-4l11.3-28.9h1.9ZM802.9,45.2l-5.5,13.9h11.2l-5.7-13.9Z"/>
      <path d="M830.1,64.7c0,4.6,1,6.1,5.7,6.1v2.1h-13.9v-2.1c4.8,0,5.8-1.6,5.8-6.1v-21.9c0-1.9-.6-2.3-2.5-2.3h-2.8v-2.3h12l9.3,26.5,9-26.5h11.7v2.3h-2.5c-1.9,0-2.5.4-2.5,2.3v25.5c0,1.9.6,2.3,2.5,2.3h2.5v2.3h-15.6v-2.3h2.9c1.9,0,2.5-.4,2.5-2.3v-27l-10.8,31.6h-1.9l-11.5-31.6v23.4Z"/>
      <path d="M869,70.6h2.6c2,0,2.6-.5,2.6-2.3v-25.5c0-1.8-.6-2.3-2.6-2.3h-2.6v-2.3h15.6v2.3h-2.6c-2,0-2.5.5-2.5,2.3v25.5c0,1.8.6,2.3,2.5,2.3h2.6v2.3h-15.6v-2.3Z"/>
    </g>
  </g>
</svg>